<svg xmlns="http://www.w3.org/2000/svg" xml:space="preserve" id="レイヤー_1" x="0" y="0" style="enable-background:new 0 0 1846 1136" version="1.1" viewBox="0 0 1846 1136"><style>.st0{fill:#66c6ed}.st1{fill:#cf66a2}.st2{fill:#231815}</style><path d="M1588 0c-7 37-7 73-7 110l1 1h74v88l-73-5-1 1v147c0 15 2 35 12 48 15 19 43 13 62 3a353 353 0 0 0 15-7v80l-138 1c-24-17-36-43-42-70-5-23-8-46-9-70 0-43 2-86 4-130v-1l-37 3v-87l1-1h39a307 307 0 0 0-5-60l104-51z" class="st0"/><path d="M1780 82c9 8 25 26 21 39-1 4-4 7-9 9-13 3-20-5-20-17 0-11 3-21 8-31z" class="st1"/><path d="M548 166V90l117 6 1 1c-2 11-13 14-22 16h-1v53h216l1 1v67l-1 1H643v49l1 1h176v66H643v52l1 1h247v72H306v-72h241l1-1v-52H378v-66h169l1-1v-49H337v-69h211z" class="st0"/><path d="m1179 531 97-27 10 77-1 1-107 36v262c0 14-2 28-6 42-9 31-37 42-67 47l-32 4a812 812 0 0 1-68 1 324 324 0 0 0-25-82 1417 1417 0 0 0 103-1c7-2 7-12 7-19V647l-100 32v1c-2 8-6 13-14 16h-1l-30-103h1a4556 4556 0 0 0 144-38V356H959v-83h131V90l109 5 1 1c-1 11-12 14-21 15l-1 1v161h102v83h-101l-1 1v174h1zm134-425c13-13 43-1 57 6-7 8-16 14-25 20-10 6-26 11-34-2-4-8-4-17 2-24zm383 2c16 5 32 13 45 23s24 27 12 42c-14 16-35 15-46-3a113 113 0 0 1-11-62zM231 178c-7 32-36 48-67 42-7-1-13-4-19-8a55 55 0 0 1-23-58c4-24 23-42 47-44 28-4 54 12 62 40 2 9 2 18 0 28zm1169-58c12 7 35 25 31 41-2 9-15 14-23 11-17-7-12-39-8-52 0 0 0-1 0 0zm-74 113c-17-8-22-27-10-41 13-17 33-28 52-35h1c1 20 1 61-18 75-7 5-15 5-25 1zm477-31c-4 9-13 12-22 8-5-3-9-7-9-13-2-15 22-28 35-33 1 12 0 26-4 38z" class="st1"/><path d="M268 360a1216 1216 0 0 0-50-95l59-31h1a1075 1075 0 0 1 72 133l-63 37-19-44zM0 503c11-16 19-36 24-54a582 582 0 0 0 25-171l68 10v1c1 54-4 109-17 162a305 305 0 0 1-37 89L0 503z" class="st0"/><path d="M149 831c-10-8-12-19-12-31V347c0-25 14-36 38-37 20 0 36 7 40 28v466c0 16-9 29-25 33-13 3-30 2-41-6zm1384-364h184c7 0 13-2 19-3h1l57 25 1 1c-3 5-6 8-11 11l-1 1a663 663 0 0 1-167 285 671 671 0 0 0 230 113 311 311 0 0 0-59 75 680 680 0 0 1-240-131 836 836 0 0 1-267 132 294 294 0 0 0-49-79 737 737 0 0 0 253-115 739 739 0 0 1-130-214l60-19c1 0 1 0 0 0h-108v-82h227zm-96 82a571 571 0 0 0 114 177c52-51 94-110 123-177h-237z" class="st1"/><path d="M724 830H469l-1 1v142h-88V526h433v369l-3 22c-6 39-36 51-72 55-29 3-64 3-94 3h-1a367 367 0 0 0-25-74l91 1c9 0 16-2 16-12v-59l-1-1zm0-180 1-1v-53H468v53l1 1h255zm1 62H468v54l1 1h255l1-1v-54zM121 876h113c5 0 9 4 9 10 1 5-4 9-9 9H121c-6 0-10-4-10-9 0-6 4-10 10-10zm-24 45h161c5 0 9 4 9 9s-4 10-9 10H97c-5 0-10-5-10-10 1-5 5-9 10-9zm-24 39h209c5 0 9 4 9 9s-4 9-9 9H73c-5 0-9-4-9-9s4-9 9-9z" class="st0"/><ellipse cx="206.3" cy="1024.9" class="st2" rx="12.3" ry="11.7" transform="rotate(-1 207 1025)"/><path d="M1155 1061h-9v-16h9v-12l1-1 20-5v18h15l1 1v15l-1 1h-15v26c1 10 5 12 15 10v1l1 15-1 1c-11 3-28 3-33-10-2-4-3-9-3-15v-29zm-861 1h1c0-6 1-11 3-14 4-9 16-11 25-9l1 1-1 11c-8-2-14 2-12 11h10v12h-10v39h-16v-39h-6l-1-1v-10l1-1h5zm323-23h3c4 0 7 3 7 7v2c1 4-3 8-7 8h-2c-5 0-8-3-8-8v-1c0-4 3-8 7-8zm703 29c9-10 26-9 30 4l2 9a3308 3308 0 0 1 0 32h-16v-28c0-5-2-11-8-11-5 0-8 4-8 9v30h-16v-74h15l1 1v28zm166-29h15l1 1v73h-16v-74zm-1290 6h21v70h-22v-69l1-1zm394 30v19c0 5 3 7 8 7h3v12c-4 1-8 2-12 1-12-1-14-9-14-19v-20l-1-1h-6v-11l1-1h6v-9l15-5v14h11l1 1v10l-1 1h-10l-1 1zm626 18c-2 0-2 0-2 2 5 10 19 9 28 5l1 1 1 10c1 0 0 0 0 0-13 5-33 6-41-7-7-10-5-26 2-35 8-8 22-10 31-5 10 5 12 18 11 28l-1 1h-30zm-1-11h18v-1c0-5-4-9-9-9s-10 4-10 9v1h1zm-968-13c7-9 22-11 29-2 3 4 4 8 4 14a1152 1152 0 0 1 0 32h-15v-29c0-2-1-5-3-7-3-5-11-3-13 2l-1 6v28h-16v-51h13v1l1 5 1 1zm132 21c0 13-11 24-24 24h-5c-13 0-24-10-24-24v-4c0-14 10-24 24-25h5c13 0 24 11 24 24v5zm-27 13c6 0 10-7 10-15s-4-16-10-16-10 7-10 16 4 15 10 15zm51-32c3-7 9-11 17-10v15c-9 0-15 1-15 11l-1 26h-15l-1-50 1-1h12l1 1v8h1zm39-2c7-10 23-11 29 0l1 1c5-7 11-9 18-9 12 2 15 12 15 23v29h-15v-28c0-5-3-13-10-10-4 1-6 4-6 8v31h-15v-32c0-5-6-9-11-7-3 2-4 5-4 9l-1 29h-15v-50h13l1 6zm103 40c-10 10-30 6-31-10 0-15 16-20 28-20 2 1 3 0 2-2l-1-1c0-2-2-3-5-3-6-1-11 0-17 3v-1l-3-9v-1c12-5 34-8 40 7l2 16 1 25h-15v-4h-1zm-5-7c5-2 5-7 5-12l-1-1c-5 0-15 2-14 9 1 5 6 6 10 4zm149-12c0 13-10 24-24 24h-5c-13 0-24-11-24-24v-5c0-13 11-24 24-24h5c14 0 24 11 24 24v5zm-26 13c5 0 10-7 10-15 0-9-4-16-10-16s-10 7-11 16h1c0 8 4 15 10 15zm51-34c9-11 27-11 32 3l1 8a1761 1761 0 0 1 0 33h-15v-29c-1-15-17-12-17 0v29h-16v-51h13l1 1v5l1 1zm546 2c8-10 23-12 35-8v1l-2 11h-1c-3-1-7-2-11-1-18 2-13 36 12 26v1l2 11c-16 6-36 2-41-17-1-8 0-17 6-24zm119-2c3-4 6-6 10-7 16-4 24 7 24 21v30h-16v-27c0-4 0-7-3-10-5-5-13 0-13 7a3020 3020 0 0 0-1 30h-15l-1-50 1-1h13v1l1 6zm97 21c0 13-11 24-24 24h-5c-13 0-24-10-24-24v-4c0-14 11-25 24-25h5c13 0 24 11 24 24v5zm-27 13c6 0 11-7 11-15s-5-16-11-16c-5 0-10 7-10 16 0 8 5 15 10 15zm116-13c0 14-11 24-25 24h-4c-14 0-24-11-24-24v-4c0-14 10-25 24-25h4c14 0 25 11 25 25v4zm-27 13c6 0 10-7 10-15 0-9-4-16-10-16s-10 7-10 16c0 8 4 15 10 15zm71-35v-5l1-1h12l1 1v46c0 23-19 29-38 25l-9-3 3-11v-1c12 6 29 6 28-12h-1c-3 4-7 6-12 6-26 2-30-36-12-48 8-5 20-6 26 3h1zm-7 6c-14-6-18 18-10 25 5 4 12 2 14-3l1-11c0-5-1-9-5-11zm-991-12h15l1 1v50h-16v-51zm1029 74h-2l-3-13c4-1 16-7 13-13l-18-47h17l10 33h1l8-33v-1l17 1-14 40c-6 15-13 29-29 33z" class="st2"/></svg>