<svg width="1920" height="1080" viewBox="0 0 1920 1080" fill="none" xmlns="http://www.w3.org/2000/svg">
<g clip-path="url(#clip0_91_242)">
<rect width="1920" height="1080" fill="white"/>
<rect x="-74.4204" y="-268" width="545" height="545" transform="rotate(29.0431 -74.4204 -268)" fill="#F0F9FF" fill-opacity="0.25"/>
<rect x="-74.0317" y="-266.64" width="543" height="543" transform="rotate(29.0431 -74.0317 -266.64)" stroke="#6CCBFF" stroke-opacity="0.5" stroke-width="2"/>
<rect x="1025" y="660.276" width="278.653" height="278.653" transform="rotate(-28.3398 1025 660.276)" fill="#FDF2F9" fill-opacity="0.25"/>
<rect x="1026.35" y="660.682" width="276.653" height="276.653" transform="rotate(-28.3398 1026.35 660.682)" stroke="#F6ABD8" stroke-opacity="0.5" stroke-width="2"/>
<rect x="1563.33" y="299" width="278.653" height="278.653" transform="rotate(30 1563.33 299)" fill="#FDF2F9" fill-opacity="0.25"/>
<rect x="1563.69" y="300.366" width="276.653" height="276.653" transform="rotate(30 1563.69 300.366)" stroke="#F6ABD8" stroke-opacity="0.5" stroke-width="2"/>
<rect x="713.679" y="565" width="452.185" height="452.185" transform="rotate(25.2207 713.679 565)" fill="#F0F9FF" fill-opacity="0.25"/>
<rect x="714.158" y="566.331" width="450.185" height="450.185" transform="rotate(25.2207 714.158 566.331)" stroke="#6CCBFF" stroke-opacity="0.5" stroke-width="2"/>
<path d="M15 472.547L401.579 366L508.125 752.579L121.547 859.125L15 472.547Z" fill="#FDF2F9" fill-opacity="0.25"/>
<path d="M16.2298 473.245L400.88 367.23L506.895 751.88L122.245 857.895L16.2298 473.245Z" stroke="#F6ABD8" stroke-opacity="0.5" stroke-width="2"/>
<rect x="1552" y="822.208" width="371.22" height="371.22" transform="rotate(-7.61735 1552 822.208)" fill="#F0F9FF" fill-opacity="0.25"/>
<rect x="1553.12" y="823.066" width="369.22" height="369.22" transform="rotate(-7.61735 1553.12 823.066)" stroke="#6CCBFF" stroke-opacity="0.5" stroke-width="2"/>
<rect x="1077.98" y="-35" width="324.47" height="324.47" transform="rotate(15 1077.98 -35)" fill="#F0F9FF" fill-opacity="0.25"/>
<rect x="1078.69" y="-33.7753" width="322.47" height="322.47" transform="rotate(15 1078.69 -33.7753)" stroke="#6CCBFF" stroke-opacity="0.5" stroke-width="2"/>
<rect x="689" y="243.606" width="127.709" height="127.709" transform="rotate(-22.3711 689 243.606)" fill="#F0F9FF" fill-opacity="0.25"/>
<rect x="690.305" y="244.151" width="125.709" height="125.709" transform="rotate(-22.3711 690.305 244.151)" stroke="#6CCBFF" stroke-opacity="0.5" stroke-width="2"/>
<rect x="1689.02" y="-133" width="278.653" height="278.653" transform="rotate(9.08974 1689.02 -133)" fill="#FDF2F9" fill-opacity="0.25"/>
<rect x="1689.85" y="-131.855" width="276.653" height="276.653" transform="rotate(9.08974 1689.85 -131.855)" stroke="#F6ABD8" stroke-opacity="0.5" stroke-width="2"/>
</g>
<defs>
<clipPath id="clip0_91_242">
<rect width="1920" height="1080" fill="white"/>
</clipPath>
</defs>
</svg>
