<svg xmlns="http://www.w3.org/2000/svg" width="128" height="128" fill="none"><path fill="#fff" d="M0 0h128v128H0z"/><g clip-path="url(#a)"><path fill="#66C6ED" d="M79 11V1l17 1-4 2v7h31v10H92v7h26v10H92v7h36v10H44V45h35v-7H55V28h24v-7H49V11h30Z"/><path fill="#CF66A2" d="M34 13c-1 5-6 7-10 6l-3-1c-2-2-4-5-3-8 1-4 3-6 7-7a8 8 0 0 1 9 10Z"/><path fill="#66C6ED" d="M39 39a166 166 0 0 0-7-14l8-4a155 155 0 0 1 11 19l-9 5-3-6ZM1 59l3-7a82 82 0 0 0 4-25l9 2c1 8 0 15-2 23a43 43 0 0 1-5 12l-9-5Z"/><path fill="#CF66A2" d="m22 106-2-5V37c0-3 2-5 6-5 3 0 5 1 5 4v66c0 2-1 4-3 5l-6-1Z"/><path fill="#66C6ED" d="M104 106H67v20H55V62h62v1a182375 182375 0 0 1-1 55c-1 6-5 7-10 8H92a52 52 0 0 0-3-10 658 658 0 0 0 15-2 1314 1314 0 0 0 0-8Zm0-26v-8H67v8h37Zm0 9H67v8h37v-8Zm-70 23H18l-1 2 1 1h16l1-1-1-2Zm3 7H15l-2 1 2 1h22l2-1-2-1Zm4 5H11l-1 1 1 2h30l1-2-1-1Z"/></g><defs><clipPath id="a"><path fill="#fff" d="M0 0h128v127H0z"/></clipPath></defs></svg>